<?xml version="1.0" encoding="utf-8"?>
<!DOCTYPE svg >
<svg  x="0px" y="0px" viewBox="0 0 256 256" enable-background="new 0 0 256 256" xml:space="preserve">
<g><g><path fill="#000000" d="M236.9,30.8H19.1c-5,0-9.1,3.9-9.1,8.7v176.8c0,4.8,4.1,8.8,9.1,8.8h217.8c5,0,9.1-3.9,9.1-8.8V39.5C246,34.7,242,30.8,236.9,30.8L236.9,30.8z M232.3,211.1H23.9v-20.8l51-47l32.2,31l0.1,0.1l0.1,0.1l0.1,0.1l0.1,0.1l0.1,0.1l0.1,0.1l19.1,18.4c2.1,2,5.6,2,7.7,0c2.1-2.1,2.1-5.4,0-7.4l-15.5-15l43.9-42.5l69.3,61.9v13.9L232.3,211.1L232.3,211.1z M227.8,176.1L227.8,176.1l-61-58.8c-2.1-2-5.6-2-7.7,0l-47.8,46.2l-32.5-31.3c-2.1-2.1-5.6-2.1-7.7,0l-47.2,44.3V44.5h208.4V180L227.8,176.1z M78.5,118.8L78.5,118.8c17.3,0,31.6-13.8,31.6-30.6c0-16.7-14.3-30.5-31.6-30.5c-17.3,0-31.6,13.8-31.6,30.5C46.8,105,61.1,118.8,78.5,118.8L78.5,118.8z M78.5,68.2L78.5,68.2c11.4,0,20.7,9,20.7,20c0,11.1-9.3,20-20.7,20c-11.4,0-20.8-9-20.8-20C57.7,77.2,67,68.2,78.5,68.2L78.5,68.2z"/></g></g>
</svg>